<svg width="129" height="63" viewBox="0 0 129 63" fill="none" xmlns="http://www.w3.org/2000/svg">
<path d="M101.898 58C104.695 52.5098 106.293 49.7647 115.483 48.9804C124.673 48.1961 125.472 40.7451 127.869 38" stroke="#D67030" stroke-linecap="round"/>
<path d="M26.9802 58C24.1833 52.5098 22.5851 49.7647 13.3952 48.9804C4.20525 48.1961 3.40613 40.7451 1.00876 38" stroke="#D67030" stroke-linecap="round"/>
<path d="M20.16 41.44C17.7867 41.44 15.92 40.9733 14.56 40.04C13.2267 39.1067 12.2933 37.84 11.76 36.24C11.2267 34.6133 10.96 32.7467 10.96 30.64V19.08C10.96 16.8667 11.2267 14.9467 11.76 13.32C12.2933 11.6933 13.2267 10.44 14.56 9.56C15.92 8.68 17.7867 8.24 20.16 8.24C22.4 8.24 24.1467 8.62666 25.4 9.4C26.68 10.1467 27.5867 11.2267 28.12 12.64C28.6533 14.0533 28.92 15.6933 28.92 17.56V20.28H23.24V17.48C23.24 16.5733 23.1867 15.7467 23.08 15C23 14.2533 22.7467 13.6667 22.32 13.24C21.92 12.7867 21.2133 12.56 20.2 12.56C19.1867 12.56 18.44 12.8 17.96 13.28C17.5067 13.7333 17.2133 14.36 17.08 15.16C16.9467 15.9333 16.88 16.8133 16.88 17.8V31.88C16.88 33.0533 16.9733 34.0267 17.16 34.8C17.3467 35.5467 17.68 36.12 18.16 36.52C18.6667 36.8933 19.3467 37.08 20.2 37.08C21.1867 37.08 21.88 36.8533 22.28 36.4C22.7067 35.92 22.9733 35.2933 23.08 34.52C23.1867 33.7467 23.24 32.88 23.24 31.92V29H28.92V31.6C28.92 33.52 28.6667 35.2267 28.16 36.72C27.6533 38.1867 26.76 39.3467 25.48 40.2C24.2267 41.0267 22.4533 41.44 20.16 41.44ZM41.8416 41.44C39.5482 41.44 37.7216 41.0133 36.3616 40.16C35.0016 39.3067 34.0282 38.08 33.4416 36.48C32.8549 34.88 32.5616 32.9867 32.5616 30.8V18.68C32.5616 16.4933 32.8549 14.6267 33.4416 13.08C34.0282 11.5067 35.0016 10.3067 36.3616 9.48C37.7216 8.65333 39.5482 8.24 41.8416 8.24C44.1882 8.24 46.0282 8.65333 47.3616 9.48C48.7216 10.3067 49.6949 11.5067 50.2816 13.08C50.8949 14.6267 51.2016 16.4933 51.2016 18.68V30.84C51.2016 33 50.8949 34.88 50.2816 36.48C49.6949 38.0533 48.7216 39.28 47.3616 40.16C46.0282 41.0133 44.1882 41.44 41.8416 41.44ZM41.8416 37.08C42.8282 37.08 43.5482 36.8667 44.0016 36.44C44.4816 36.0133 44.8016 35.4267 44.9616 34.68C45.1216 33.9333 45.2016 33.12 45.2016 32.24V17.32C45.2016 16.4133 45.1216 15.6 44.9616 14.88C44.8016 14.16 44.4816 13.6 44.0016 13.2C43.5482 12.7733 42.8282 12.56 41.8416 12.56C40.9082 12.56 40.2016 12.7733 39.7216 13.2C39.2416 13.6 38.9216 14.16 38.7616 14.88C38.6016 15.6 38.5216 16.4133 38.5216 17.32V32.24C38.5216 33.12 38.5882 33.9333 38.7216 34.68C38.8816 35.4267 39.2016 36.0133 39.6816 36.44C40.1616 36.8667 40.8816 37.08 41.8416 37.08ZM55.5806 41V8.6H68.9006V12.68H61.5006V22.12H67.5406V26.24H61.5006V41H55.5806ZM72.1041 41V8.6H85.4241V12.68H78.0241V22.12H84.0641V26.24H78.0241V41H72.1041ZM88.6275 41V8.6H102.228V12.76H94.5475V22.08H100.588V26.2H94.5475V36.92H102.308V41H88.6275ZM105.737 41V8.6H119.337V12.76H111.657V22.08H117.697V26.2H111.657V36.92H119.417V41H105.737Z" fill="#04524C"/>
<path d="M51.1983 61.176C50.4196 61.176 49.769 61.0267 49.2463 60.728C48.7236 60.4187 48.329 59.9707 48.0623 59.384C47.7956 58.7973 47.6463 58.0773 47.6143 57.224L49.6463 56.824C49.6676 57.3253 49.7263 57.768 49.8223 58.152C49.929 58.536 50.0836 58.8347 50.2863 59.048C50.4996 59.2507 50.777 59.352 51.1183 59.352C51.5023 59.352 51.7743 59.24 51.9343 59.016C52.0943 58.7813 52.1743 58.488 52.1743 58.136C52.1743 57.5707 52.0463 57.1067 51.7903 56.744C51.5343 56.3813 51.193 56.0187 50.7663 55.656L49.1343 54.216C48.6756 53.8213 48.3076 53.384 48.0303 52.904C47.7636 52.4133 47.6303 51.8107 47.6303 51.096C47.6303 50.072 47.929 49.2827 48.5263 48.728C49.1236 48.1733 49.9396 47.896 50.9743 47.896C51.5823 47.896 52.089 47.992 52.4943 48.184C52.8996 48.3653 53.2196 48.6213 53.4543 48.952C53.6996 49.2827 53.881 49.6613 53.9983 50.088C54.1156 50.504 54.1903 50.9467 54.2223 51.416L52.2063 51.768C52.185 51.3627 52.137 51 52.0623 50.68C51.9983 50.36 51.8756 50.1093 51.6943 49.928C51.5236 49.7467 51.2676 49.656 50.9263 49.656C50.5743 49.656 50.3023 49.7733 50.1103 50.008C49.929 50.232 49.8383 50.5147 49.8383 50.856C49.8383 51.2933 49.929 51.656 50.1103 51.944C50.2916 52.2213 50.553 52.5093 50.8943 52.808L52.5103 54.232C53.0436 54.68 53.497 55.208 53.8703 55.816C54.2543 56.4133 54.4463 57.1387 54.4463 57.992C54.4463 58.6107 54.3076 59.16 54.0303 59.64C53.7636 60.12 53.385 60.4987 52.8943 60.776C52.4143 61.0427 51.849 61.176 51.1983 61.176ZM55.8726 61V48.04H58.2246V53.464H60.8646V48.04H63.2326V61H60.8646V55.144H58.2246V61H55.8726ZM68.7356 61.176C67.8182 61.176 67.0876 61.0053 66.5436 60.664C65.9996 60.3227 65.6102 59.832 65.3756 59.192C65.1409 58.552 65.0236 57.7947 65.0236 56.92V52.072C65.0236 51.1973 65.1409 50.4507 65.3756 49.832C65.6102 49.2027 65.9996 48.7227 66.5436 48.392C67.0876 48.0613 67.8182 47.896 68.7356 47.896C69.6742 47.896 70.4102 48.0613 70.9436 48.392C71.4876 48.7227 71.8769 49.2027 72.1116 49.832C72.3569 50.4507 72.4796 51.1973 72.4796 52.072V56.936C72.4796 57.8 72.3569 58.552 72.1116 59.192C71.8769 59.8213 71.4876 60.312 70.9436 60.664C70.4102 61.0053 69.6742 61.176 68.7356 61.176ZM68.7356 59.432C69.1302 59.432 69.4182 59.3467 69.5996 59.176C69.7916 59.0053 69.9196 58.7707 69.9836 58.472C70.0476 58.1733 70.0796 57.848 70.0796 57.496V51.528C70.0796 51.1653 70.0476 50.84 69.9836 50.552C69.9196 50.264 69.7916 50.04 69.5996 49.88C69.4182 49.7093 69.1302 49.624 68.7356 49.624C68.3622 49.624 68.0796 49.7093 67.8876 49.88C67.6956 50.04 67.5676 50.264 67.5036 50.552C67.4396 50.84 67.4076 51.1653 67.4076 51.528V57.496C67.4076 57.848 67.4342 58.1733 67.4876 58.472C67.5516 58.7707 67.6796 59.0053 67.8716 59.176C68.0636 59.3467 68.3516 59.432 68.7356 59.432ZM74.2312 61V48.04H78.0392C78.8179 48.04 79.4472 48.184 79.9272 48.472C80.4179 48.76 80.7752 49.1813 80.9992 49.736C81.2339 50.28 81.3512 50.9413 81.3512 51.72C81.3512 52.5627 81.2072 53.2453 80.9192 53.768C80.6312 54.28 80.2259 54.6533 79.7032 54.888C79.1912 55.1227 78.5832 55.24 77.8792 55.24H76.5992V61H74.2312ZM76.5992 53.576H77.4952C77.9219 53.576 78.2525 53.5173 78.4872 53.4C78.7325 53.272 78.8979 53.0747 78.9832 52.808C79.0792 52.5307 79.1272 52.1627 79.1272 51.704C79.1272 51.2347 79.0899 50.856 79.0152 50.568C78.9512 50.2693 78.8019 50.0507 78.5672 49.912C78.3432 49.7733 77.9859 49.704 77.4952 49.704H76.5992V53.576Z" fill="#04524C"/>
<ellipse cx="89.9111" cy="54" rx="3.99561" ry="4" fill="#04524C"/>
<ellipse cx="38.967" cy="54" rx="3.99561" ry="4" fill="#04524C"/>
</svg>
